<svg xmlns="http://www.w3.org/2000/svg" viewBox="0 0 40 40"><g id="圖層_2" data-name="圖層 2"><g id="圖層_1-2" data-name="圖層 1"><path d="M0,40Q0,20.16,0,.36C0,.07.07,0,.36,0H40c0,.11,0,.23,0,.35q0,19.58,0,39.15c0,.38-.11.54-.49.48H.55ZM37.59,20v-17c0-.56,0-.56-.57-.56H3c-.59,0-.59,0-.59.58V37c0,.58,0,.58.59.58H37c.61,0,.61,0,.61-.6Z"/><path d="M18,34.32c-1.91,0-3.83,0-5.74,0a1.11,1.11,0,0,1-1.09-.65c-.87-1.64-1.76-3.26-2.64-4.89-.31-.58-.17-.91.45-1.13,1.78-.61,3.57-1.23,5.36-1.83.37-.13.35-.21.08-.46-1.69-1.55-3.36-3.12-5-4.69-.58-.54-.59-.81,0-1.35l5-4.7c.09-.08.26-.14.23-.28s-.2-.14-.32-.17L9,12.33c-.6-.2-.74-.53-.43-1.09.89-1.66,1.79-3.3,2.68-5a1,1,0,0,1,1-.6q5.74,0,11.49,0a1,1,0,0,1,1.06.67q3.27,6.49,6.6,13a1.3,1.3,0,0,1,0,1.37Q28,27.27,24.7,33.87a.8.8,0,0,1-.84.45ZM17.71,20V16.83c0-1.46,0-1.46-1.35-1.94l0,0a.31.31,0,0,0-.41.09l-5.2,4.84c-.17.16-.16.25,0,.41,1.5,1.39,3,2.74,4.48,4.22a1.53,1.53,0,0,0,2.13.32.56.56,0,0,0,.38-.58C17.7,22.78,17.71,21.4,17.71,20Zm1.22,0c0,1.2,0,2.41,0,3.62,0,.33,0,.48.43.33,3.17-1.27,6.34-2.51,9.52-3.76.1,0,.25-.05.26-.18s-.16-.15-.26-.19c-3.18-1.26-6.37-2.51-9.55-3.78-.33-.12-.4,0-.4.29C18.93,17.55,18.93,18.77,18.93,20ZM22.4,7.09A.27.27,0,0,0,22.13,7H12.64a.58.58,0,0,0-.57.35c-.6,1.12-1.21,2.24-1.83,3.35-.18.34-.06.39.25.39h7.4a.7.7,0,0,0,.51-.18C19.72,9.62,21.06,8.36,22.4,7.09Zm0,25.85-4.05-3.85a.63.63,0,0,0-.47-.16H10.46c-.32,0-.38.09-.22.38.59,1.07,1.19,2.15,1.75,3.24a.79.79,0,0,0,.81.48c3,0,6.1,0,9.15,0A.78.78,0,0,0,22.42,32.94Zm7-14.78a2.11,2.11,0,0,0-.07-.25q-2.61-5.13-5.21-10.25c-.17-.34-.28-.2-.46,0L19.8,11.28c-.39.38-.39.38.05.67l6.86,4.47Zm0,3.8c-.15-.05-.21,0-.28.07-3.08,2-6.17,4-9.26,6-.32.21-.38.34-.06.63,1.28,1.19,2.54,2.41,3.8,3.61.37.35.37.36.6-.1l4.78-9.4Zm-4.21-5,0-.08-3.08-2c-.94-.62-1.89-1.23-2.83-1.86-.28-.18-.37-.12-.36.2s0,.62,0,.92a.46.46,0,0,0,.32.49Zm0,6.07L25.14,23,20,25c-1.16.45-1.15.45-1.11,1.73,0,.35.1.37.37.2.78-.53,1.57-1,2.36-1.55ZM13.08,12.35v.05l2.52.86c.09,0,.19.09.28,0l1-.92Zm3.78,15.3-1-.9a.2.2,0,0,0-.23,0l-2.72.93Z"/></g></g></svg>