<svg xmlns="http://www.w3.org/2000/svg" viewBox="0 0 40 40"><g id="圖層_2" data-name="圖層 2"><g id="圖層_1-2" data-name="圖層 1"><path d="M0,40Q0,20.16,0,.36C0,.07.07,0,.36,0H40c0,.11,0,.23,0,.35q0,19.58,0,39.15c0,.38-.11.54-.49.48H.55ZM37.59,20v-17c0-.56,0-.56-.57-.56H3c-.59,0-.59,0-.59.58V37c0,.58,0,.58.59.58H37c.61,0,.61,0,.61-.6Z"/><path d="M22.48,27.51c-.35-.05-.87.17-1.21-.1s-.35-.76-.5-1.16c-.22-.55-.42-1.09-.61-1.65a.5.5,0,0,0-.54-.39c-1.28,0-2.55,0-3.82,0a.47.47,0,0,0-.52.36c-.3.85-.62,1.68-.91,2.53a.5.5,0,0,1-.57.4c-.62,0-1.25,0-1.87,0-.44,0-.46,0-.31-.44.72-1.9,1.45-3.79,2.17-5.68.86-2.26,1.73-4.52,2.58-6.78a.62.62,0,0,1,.71-.5,9.69,9.69,0,0,0,1.32,0,.62.62,0,0,1,.69.47c1.15,3.08,2.33,6.15,3.5,9.22.41,1.1.83,2.19,1.24,3.28.15.39.12.42-.29.43ZM17.77,17.39h-.09C17.12,18.94,16.56,20.47,16,22c-.11.3.08.29.28.29.93,0,1.87,0,2.8,0,.34,0,.41-.08.3-.4-.38-1-.73-2.06-1.09-3.09Z"/><path d="M25.11,22.55c0-1.48,0-3,0-4.45,0-.37.12-.5.5-.49a14.77,14.77,0,0,0,1.63,0c.39,0,.5.14.5.5,0,1.17,0,2.34,0,3.51v5.19c0,.7,0,.7-.67.7-.5,0-1,0-1.48,0s-.47-.13-.47-.47C25.12,25.54,25.11,24.05,25.11,22.55Z"/><path d="M26.38,16.34h-.94c-.22,0-.33-.09-.33-.32V14.07c0-.21.1-.32.3-.32h2c.22,0,.32.13.32.35V16c0,.24-.13.34-.37.33Z"/></g></g></svg>