<svg xmlns="http://www.w3.org/2000/svg" xmlns:xlink="http://www.w3.org/1999/xlink" viewBox="0 0 40 40"><defs><style>.cls-1{fill:none;}.cls-2{clip-path:url(#clip-path);}</style><clipPath id="clip-path"><rect class="cls-1" y="3.73" width="40" height="32.54"/></clipPath></defs><g id="圖層_2" data-name="圖層 2"><g id="圖層_1-2" data-name="圖層 1"><g class="cls-2"><path d="M39.88,21.85a11.73,11.73,0,0,0-1.7-4.65,13,13,0,0,0-3-3.32h0L22.67,4.25l0,0a2.59,2.59,0,0,0-1.59-.49,2.91,2.91,0,0,0-1.65.49,1.69,1.69,0,0,0-.79,1.28,1.54,1.54,0,0,0,.61,1.23l2.42,1.94L24,10.59l-15.36,0c-1.75,0-2.95.83-3.2,2.21A2.26,2.26,0,0,0,6,14.56a2.38,2.38,0,0,0,1.85.84h7.59L1.48,25.7l-.06,0A3.52,3.52,0,0,0,0,28a2.29,2.29,0,0,0,.44,1.72,2.41,2.41,0,0,0,2,.88,3.7,3.7,0,0,0,2.3-.85l7.52-6.16a9.16,9.16,0,0,0-.06,1.06A9.92,9.92,0,0,0,12.6,27a12.43,12.43,0,0,0,2.66,4.62A13.83,13.83,0,0,0,19.92,35,15,15,0,0,0,26,36.27h0A15,15,0,0,0,32.15,35a13.88,13.88,0,0,0,4.65-3.36A12.37,12.37,0,0,0,39.46,27a11.41,11.41,0,0,0,.5-2.59,11.57,11.57,0,0,0-.08-2.56ZM26.17,30c-4.71,0-8.53-3.42-8.53-7.63s3.82-7.63,8.53-7.63,8.52,3.42,8.52,7.63S30.88,30,26.17,30Zm4.92-8.3A4.27,4.27,0,0,1,29.77,25a5.27,5.27,0,0,1-7.22,0,4.26,4.26,0,0,1-1.31-3.29,4.32,4.32,0,0,1,1.56-3.06,5.27,5.27,0,0,1,6.72,0,4.33,4.33,0,0,1,1.57,3.06Z"/></g><rect class="cls-1" width="40" height="40"/></g></g></svg>