<svg xmlns="http://www.w3.org/2000/svg" viewBox="0 0 40 40"><g id="圖層_2" data-name="圖層 2"><g id="圖層_1-2" data-name="圖層 1"><path d="M0,40Q0,20.16,0,.36C0,.07.07,0,.36,0H40c0,.11,0,.23,0,.35q0,19.58,0,39.15c0,.38-.11.54-.49.48H.55ZM37.59,20v-17c0-.56,0-.56-.57-.56H3c-.59,0-.59,0-.59.58V37c0,.58,0,.58.59.58H37c.61,0,.61,0,.61-.6Z"/><path d="M6.94,7.35a.66.66,0,0,1,.45.12A17,17,0,0,0,11.78,8.8c.8.1,1.61.12,2.41.18s1.2.41,1.83.51c.36,0,.72.1.95-.26s-.09-.69-.46-.94a2,2,0,0,0-1.17-.35A5.37,5.37,0,0,1,11.8,6.85a6,6,0,0,1-1.16-1.3.57.57,0,0,1,.46.11,9.84,9.84,0,0,0,2.78,1c.7.11,1.42.17,2.13.21a7.91,7.91,0,0,1,3.74,1,20.11,20.11,0,0,0,3.93,2c.27.08.34.22.16.45a.82.82,0,0,0-.12.2c-.28.51-.17.81.37,1l3.73,1.37a1.82,1.82,0,0,0,.8.13.62.62,0,0,0,.19,0c.63-.14.62-.14.93.44a3.68,3.68,0,0,1,.45,2.32A2,2,0,0,1,29.55,17c-.07.07-.15.16-.27.1s-.08-.15-.08-.24a1.44,1.44,0,0,0-1-1.43,4.57,4.57,0,0,0-3-.26c-.37.09-.55,0-.64-.37a1,1,0,0,0-1.08-.88,6.38,6.38,0,0,0-2.69.38,3.09,3.09,0,0,1,2.64,1.61,2,2,0,0,0,.4.42,4.79,4.79,0,0,0,2.76,1c.13,0,.3,0,.37.14s-.07.29-.19.4a.92.92,0,0,1-.71.27,3.21,3.21,0,0,0-1.41.21,8.8,8.8,0,0,1-1.13.26.71.71,0,0,1-.6-.11c.09-.2.3-.23.45-.34.33-.25.33-.56,0-.75A1.7,1.7,0,0,0,22,17.19a.91.91,0,0,1-.89,0s0-.07,0-.08c.47-.43.44-.63-.15-.87a2.21,2.21,0,0,0-1.85,0A1.08,1.08,0,0,0,18.63,18a7.28,7.28,0,0,0,2,1.68c1.32.89,2.67,1.73,4,2.65a18.35,18.35,0,0,1,3.85,3.46,6.64,6.64,0,0,1,1.36,6.11c-.56,2-1.47,2.25-3.06,2.45a14.43,14.43,0,0,1-3.15.06A26.71,26.71,0,0,1,19,34a4.19,4.19,0,0,1-1.39-.6c-.37-.27-.36-.32,0-.56a6.73,6.73,0,0,0,1.2-1,1.68,1.68,0,0,0-.26-2.77,20.79,20.79,0,0,1-2-1.52A4.76,4.76,0,0,1,15,25c0-.11-.07-.24,0-.33s.22,0,.3.1a5.55,5.55,0,0,0,2.17,1l.31,0c1,0,1.39-.63,1-1.49a8.09,8.09,0,0,0-.46-.73.87.87,0,0,0-.81-.36A7.66,7.66,0,0,1,15.12,23a4,4,0,0,1-2.4-1.93c-.06-.1-.16-.21-.09-.32s.22,0,.33,0,.52.15.79.21a1.3,1.3,0,0,0,.73,0,.79.79,0,0,0,.59-.7.72.72,0,0,0-.46-.78,6.59,6.59,0,0,0-1.95-.5,3.91,3.91,0,0,1-3.05-2.56c0-.11-.12-.23,0-.32s.19,0,.28.05a3.6,3.6,0,0,0,1.91.58,1,1,0,0,0,1-.67,1,1,0,0,0-.16-1.16c-.33-.35-.69-.68-1-1a1.64,1.64,0,0,1-.51-1.37c0-.11,0-.25.13-.3s.22,0,.31.1a3,3,0,0,0,1.8.76.89.89,0,0,0,1-1,1.87,1.87,0,0,0-1.82-1.84A8.75,8.75,0,0,1,9.32,9.4,7.64,7.64,0,0,1,7.07,7.62.37.37,0,0,1,6.94,7.35Zm15.49,4a2.83,2.83,0,0,0-1-.7,1,1,0,0,0-.78-.09c-.13.06-.32.09-.32.24s.21.15.33.18l.31.06Z"/></g></g></svg>