<svg xmlns="http://www.w3.org/2000/svg" viewBox="0 0 40 40"><defs><style>.cls-1{fill:none;}</style></defs><g id="圖層_2" data-name="圖層 2"><g id="圖層_1-2" data-name="圖層 1"><path d="M6.1,7.48A7.48,7.48,0,0,1,13.58,0H26.42a7.49,7.49,0,0,1,4.11,13.74,7.49,7.49,0,0,1-4.11,13.74h-.16a7.42,7.42,0,0,1-5-1.94v6.89A7.61,7.61,0,0,1,13.62,40,7.49,7.49,0,0,1,9.47,26.26a7.5,7.5,0,0,1,0-12.52A7.48,7.48,0,0,1,6.1,7.48ZM18.77,15H13.58a5,5,0,0,0,0,10.06h5.22Zm2.46,5a5,5,0,0,0,5,5h.16a5,5,0,0,0,0-10.06h-.16A5,5,0,0,0,21.23,20Zm-7.65,7.48h0a5,5,0,0,0,.07,10.07,5.15,5.15,0,0,0,5.15-5.12V27.48Zm0-25a5,5,0,0,0,0,10.07h5.19V2.45Zm7.65,10.07h5.19a5,5,0,0,0,0-10.07H21.23Z"/><rect class="cls-1" width="40" height="40"/></g></g></svg>