<svg xmlns="http://www.w3.org/2000/svg" viewBox="0 0 40 40"><g id="圖層_2" data-name="圖層 2"><g id="圖層_1-2" data-name="圖層 1"><path d="M40,40H.37C0,40,0,39.92,0,39.61Q0,20,0,.39C0,.08,0,0,.37,0H40c0,.18,0,.36,0,.54v38.9C40,39.63,40,39.81,40,40ZM37.6,20V3c0-.6,0-.6-.61-.6H3c-.59,0-.59,0-.59.58V37c0,.58,0,.58.59.58H37c.61,0,.61,0,.61-.6Z"/><path d="M12.23,20.85c0-2.07,0-4.14,0-6.21,0-.39.12-.52.51-.52,1.63,0,3.25,0,4.88,0a4.49,4.49,0,0,1,.93,8.9,19.12,19.12,0,0,1-2.73,0c-1.05,0-.93-.13-.94.93s0,2.06,0,3.08c0,.35-.11.47-.45.45-.57,0-1.15,0-1.72,0-.37,0-.54-.1-.48-.48v-6.2Zm2.64-2.26c0,.56,0,1.12,0,1.68,0,.32.12.45.44.44.77,0,1.55,0,2.33,0a1.61,1.61,0,0,0,1.71-1.3,2.89,2.89,0,0,0,0-1.43,1.73,1.73,0,0,0-1.87-1.47H15.28c-.3,0-.42.1-.41.41C14.88,17.48,14.87,18,14.87,18.59Z"/><path d="M26,19.44a11.91,11.91,0,0,1,1-1.1,3.3,3.3,0,0,1,2-.84c.45,0,.54,0,.55.48s0,.94,0,1.41-.13.54-.51.54a3.58,3.58,0,0,0-1.95.62,1.8,1.8,0,0,0-.9,1.68c.05,1.59,0,3.18,0,4.77,0,.51,0,.52-.52.53H24.2c-.56,0-.57,0-.57-.6V21.27c0-1.05,0-2.11,0-3.16,0-.35.1-.5.47-.48s1,0,1.56,0c.26,0,.37.11.37.37C26,18.48,26,19,26,19.44Z"/></g></g></svg>