<svg xmlns="http://www.w3.org/2000/svg" viewBox="0 0 40 40"><g id="圖層_2" data-name="圖層 2"><g id="圖層_1-2" data-name="圖層 1"><path d="M0,40Q0,20.16,0,.36C0,.07.07,0,.36,0H40c0,.11,0,.23,0,.35q0,19.58,0,39.15c0,.38-.11.54-.49.48H.55ZM37.59,20v-17c0-.56,0-.56-.57-.56H3c-.59,0-.59,0-.59.58V37c0,.58,0,.58.59.58H37c.6,0,.6,0,.6-.6Z"/><path d="M10.94,20.8V14.72c0-.58,0-.6.59-.6,1.69,0,3.38,0,5.07,0a4.43,4.43,0,0,1,4.25,3.76,4.5,4.5,0,0,1-2.68,4.91,4,4,0,0,1-1.41.27H14.15c-.53,0-.53,0-.53.55,0,1.14,0,2.29,0,3.43,0,.35-.1.49-.46.47-.58,0-1.17,0-1.75,0-.38,0-.48-.14-.47-.47,0-1.26,0-2.52,0-3.79Zm2.68-2.21c0,.56,0,1.12,0,1.68,0,.29.11.43.41.42h2.61A1.38,1.38,0,0,0,17.84,20a2.59,2.59,0,0,0,.28-2,1.72,1.72,0,0,0-1.88-1.49c-.72,0-1.43,0-2.15,0-.38,0-.5.13-.48.5C13.63,17.52,13.62,18.06,13.62,18.59Z"/><path d="M26.27,17.44a5.53,5.53,0,0,1,3.13,1c.29.21.4.4.14.72a5.91,5.91,0,0,0-.57.84c-.16.27-.3.31-.58.13a4.39,4.39,0,0,0-2.66-.87,1.78,1.78,0,0,0-.82.21A.87.87,0,0,0,24.82,21a2.8,2.8,0,0,0,1,.43c.65.17,1.32.29,2,.52a6.31,6.31,0,0,1,.95.44,2.67,2.67,0,0,1,0,4.67,5.32,5.32,0,0,1-2.78.64,7.29,7.29,0,0,1-4-1.24c-.31-.2-.42-.39-.17-.72s.32-.53.48-.8c.26-.43.26-.43.68-.17a6.33,6.33,0,0,0,2.47,1,2.73,2.73,0,0,0,1.5-.12.89.89,0,0,0,.61-.75.82.82,0,0,0-.49-.85,6.76,6.76,0,0,0-1.81-.6,9.12,9.12,0,0,1-1.7-.55A2.59,2.59,0,0,1,23,18.43,4.56,4.56,0,0,1,26.27,17.44Z"/></g></g></svg>