<svg xmlns="http://www.w3.org/2000/svg" viewBox="0 0 40 40"><defs><style>.cls-1{fill:none;}</style></defs><g id="圖層_2" data-name="圖層 2"><g id="圖層_1-2" data-name="圖層 1"><path d="M32.88,23.81a10.45,10.45,0,0,1-.18,3,15.21,15.21,0,0,1-.8,2.86,15.87,15.87,0,0,1-2,3.79,14.68,14.68,0,0,1-2.54,2.74,15.1,15.1,0,0,1-3.2,2.1,13.81,13.81,0,0,1-3.71,1.22,14.55,14.55,0,0,1-3.29.3,15.45,15.45,0,0,1-4.65-.94,16.24,16.24,0,0,1-4.21-2.39,15.6,15.6,0,0,1-2.74-2.88,17.76,17.76,0,0,1-2.09-3.76A14.83,14.83,0,0,1,2.63,27,16.38,16.38,0,0,1,2.33,23a19,19,0,0,1,.44-2.9,16.19,16.19,0,0,1,1.49-4,15.7,15.7,0,0,1,3.63-4.53,14.49,14.49,0,0,1,3.45-2.24,17.17,17.17,0,0,1,2.93-1A14.79,14.79,0,0,1,17.14,8a13.66,13.66,0,0,1,2.48.07A13.37,13.37,0,0,1,23,8.94a15.32,15.32,0,0,1,4.9,3.14,17,17,0,0,1,3.06,4,15.23,15.23,0,0,1,1.56,4.05A10.57,10.57,0,0,1,32.88,23.81ZM27.8,20.42c0-.75,0-1.5,0-2.25a.78.78,0,0,0-.43-.75c-.49-.3-1-.58-1.49-.87l-4.37-2.66c-1.17-.7-2.36-1.39-3.53-2.11a.67.67,0,0,0-.79.05l-4.28,2.62Q10.33,16,7.75,17.54a.55.55,0,0,0-.31.54c0,1.6,0,3.2,0,4.8a.39.39,0,0,0,.32.45c.78.23,1.55.5,2.32.76s1.72.64,2.6.87c1.37.37,2.68.93,4,1.3.8.21,1.58.52,2.37.79l2.32.77c.11,0,.27.05.29.21s-.16.21-.27.27c-1.13.68-2.25,1.38-3.39,2a.63.63,0,0,1-.77,0c-1.55-.94-3.1-1.89-4.66-2.8-.43-.24-.67-.51-.58-1a.5.5,0,0,0-.37-.61c-1.27-.42-2.55-.82-3.81-1.25-.34-.11-.41,0-.41.32,0,1.4,0,2.8,0,4.2A1.09,1.09,0,0,0,8,30.36c1.89,1.07,3.72,2.23,5.58,3.34,1.16.7,2.34,1.35,3.46,2.09a.93.93,0,0,0,1.15,0q2.16-1.34,4.33-2.64c1.55-.94,3.12-1.84,4.67-2.78.23-.14.58-.23.58-.64,0-1.64,0-3.28,0-4.92a.43.43,0,0,0-.3-.46l-3.69-1.2c-1.45-.47-2.88-1-4.34-1.45s-2.86-1-4.3-1.45l-1.35-.45c-.24-.08-.3-.21-.05-.36l3.68-2.18a.49.49,0,0,1,.54.05c1.48.91,3,1.84,4.48,2.7.52.3.87.57.76,1.24,0,.28.1.43.37.51,1.26.4,2.53.79,3.77,1.24.42.16.44,0,.44-.34C27.79,21.92,27.8,21.17,27.8,20.42Z"/><path d="M32,35.85a4,4,0,0,1,4-4.21A4.18,4.18,0,0,1,36,40,4,4,0,0,1,32,35.85Z"/><path d="M15.13,2.58A2.55,2.55,0,0,1,17.72,0a2.67,2.67,0,0,1,2.49,2.7,2.57,2.57,0,0,1-2.59,2.61A2.48,2.48,0,0,1,15.13,2.58Z"/><path d="M1.82,34a1.76,1.76,0,0,1,1.8,1.88,1.85,1.85,0,0,1-1.85,1.87A1.85,1.85,0,0,1,0,35.82,1.79,1.79,0,0,1,1.82,34Z"/><rect class="cls-1" width="40" height="40"/></g></g></svg>