<svg xmlns="http://www.w3.org/2000/svg" viewBox="0 0 40 40"><defs><style>.cls-1{fill:none;}</style></defs><g id="圖層_2" data-name="圖層 2"><g id="圖層_1-2" data-name="圖層 1"><path d="M14.07,8.25a18.47,18.47,0,0,1,2.23.08.8.8,0,0,0,.86-.49c.55-1,1.15-2,1.68-3a1.78,1.78,0,0,1,1.24-1C23.45,3,26.81,2.13,30.17,1.24c1.5-.4,3-.78,4.5-1.19.42-.12.64,0,.76.43q2,7.46,4,14.9a1.25,1.25,0,0,1-.16,1c-.61,1-1.19,2-1.8,3.05a.93.93,0,0,0,0,1.1c.63,1,1.2,2.08,1.82,3.1a1.16,1.16,0,0,1,.14,1Q38,30,36.53,35.37c-.36,1.35-.73,2.69-1.06,4.05-.12.53-.31.67-.84.53-4.32-1.18-8.63-2.33-13-3.49-.65-.17-1.3-.35-1.95-.5a1,1,0,0,1-.69-.53c-.6-1.07-1.22-2.11-1.81-3.18a.94.94,0,0,0-.94-.56c-1.19,0-2.39,0-3.58,0a1.25,1.25,0,0,1-1-.42c-2.88-2.89-5.78-5.77-8.67-8.65-.76-.77-1.52-1.53-2.3-2.27-.27-.26-.33-.45,0-.75,3-3,6-5.94,9-8.91.63-.63,1.28-1.24,1.88-1.9A1.52,1.52,0,0,1,13,8.24,10.44,10.44,0,0,0,14.07,8.25Zm18.85-.18a2.36,2.36,0,0,0-.24.33c-2.12,3.66-4.22,7.32-6.35,11a1.05,1.05,0,0,0,0,1.24c1.68,2.85,3.33,5.73,5,8.59.5.87,1,1.72,1.59,2.68.13-.39.22-.68.31-1,1-3.44,1.91-6.89,2.88-10.33a2,2,0,0,0,0-1.17c-.68-2.36-1.33-4.71-2-7.07C33.71,11,33.33,9.58,32.92,8.07Zm-3.7,25.75c.07-.17,0-.26-.07-.35L22.69,22.31a.52.52,0,0,0-.55-.28H9.44c-.18,0-.44-.09-.52.08s.15.32.28.44c2.58,2.65,5.18,5.3,7.77,8a1.36,1.36,0,0,0,.66.4c3.42.88,6.83,1.77,10.25,2.64A6.37,6.37,0,0,0,29.22,33.82ZM8.86,17.87a.62.62,0,0,0,.16,0h13a.72.72,0,0,0,.67-.43Q26,11.9,29.2,6.33c0-.07.12-.16,0-.26h-.16L17.66,9a1.82,1.82,0,0,0-.79.52c-1.7,1.74-3.43,3.47-5.12,5.22C10.77,15.77,9.83,16.83,8.86,17.87Z"/><rect class="cls-1" width="40" height="40"/></g></g></svg>