<svg xmlns="http://www.w3.org/2000/svg" viewBox="0 0 40 40"><g id="圖層_2" data-name="圖層 2"><g id="圖層_1-2" data-name="圖層 1"><path d="M40,40H.37C0,40,0,39.92,0,39.61Q0,20,0,.39C0,.08,0,0,.37,0H40c0,.18,0,.36,0,.54v38.9C40,39.63,40,39.81,40,40ZM37.6,20V3c0-.6,0-.6-.61-.6H3c-.59,0-.59,0-.59.58V37c0,.58,0,.58.59.58H37c.61,0,.61,0,.61-.6Z"/><path d="M26.89,18.54a1.67,1.67,0,0,0-.72-.12c-1.57,0-2.62,1.21-2.62,3.21,0,2.3,1.07,3.22,2.47,3.22a2.35,2.35,0,0,0,.86-.14V18.54ZM21.3,21.73a4.83,4.83,0,0,1,4.94-5.17c.26,0,.4,0,.65,0V13.34a.12.12,0,0,1,.12-.12h2c.1,0,.13,0,.13.1V24.71a9.38,9.38,0,0,0,.06,1.23c0,.08,0,.1-.08.13a7.38,7.38,0,0,1-3.19.73c-2.7,0-4.64-1.67-4.64-5.07Zm-4.25-2,3.49,6.77c.06.1,0,.2-.07.2H18.3a.23.23,0,0,1-.26-.16c-.8-1.64-1.61-3.35-2.45-5.12h0c-.75,1.67-1.58,3.49-2.37,5.13a.26.26,0,0,1-.23.14H10.9c-.12,0-.14-.1-.07-.17l3.41-6.57-3.3-6.54A.11.11,0,0,1,11,13.2h2.14c.13,0,.19,0,.23.14.78,1.66,1.58,3.29,2.33,5h0c.73-1.64,1.52-3.3,2.29-4.93.06-.1.1-.17.22-.17h2c.1,0,.13.08.07.19l-3.29,6.32Z"/></g></g></svg>