<svg xmlns="http://www.w3.org/2000/svg" viewBox="0 0 40 40"><g id="圖層_2" data-name="圖層 2"><g id="圖層_1-2" data-name="圖層 1"><path d="M0,40Q0,20.16,0,.36C0,.07.07,0,.36,0H40c0,.11,0,.23,0,.35q0,19.58,0,39.15c0,.38-.11.54-.49.48H.55ZM37.59,20v-17c0-.56,0-.56-.57-.56H3c-.59,0-.59,0-.59.58V37c0,.58,0,.58.59.58H37c.61,0,.61,0,.61-.6Z"/><path d="M19.79,21.38a10.65,10.65,0,0,1,1.67.12,16.15,16.15,0,0,1,7.12,3,16.72,16.72,0,0,1,5.75,7.27,2,2,0,0,1,.18.64c0,.52-.17.7-.67.57a2,2,0,0,1-.45-.2A16.64,16.64,0,0,1,29.85,30a1.2,1.2,0,0,1-.29-1.32,1.62,1.62,0,0,0-.69-2,8.23,8.23,0,0,0-3.32-1.45A28.43,28.43,0,0,0,18,24.44a1.56,1.56,0,0,0-1.18.63,23.68,23.68,0,0,1-6.07,5.22,10.75,10.75,0,0,1-3.9,1.44,2.93,2.93,0,0,1-1,0,.46.46,0,0,1-.41-.51,3.15,3.15,0,0,1,.68-1.87,14,14,0,0,1,3.1-3.23,24.61,24.61,0,0,1,8.18-4.3,1.19,1.19,0,0,0,.67-.45,27.93,27.93,0,0,1,3.76-4.21c.11-.1.32-.22.06-.38-1.07-.69-2.09-1.46-3.2-2.09A4,4,0,0,0,14,15a3,3,0,0,0-1.3,1.41,1.87,1.87,0,0,0-.13.8A1.07,1.07,0,0,1,12,18.3a9.72,9.72,0,0,1-2.08.93,5.54,5.54,0,0,1-.8.21c-.41.07-.59-.17-.43-.55a4.15,4.15,0,0,1,.42-.74,14.42,14.42,0,0,1,4.23-4.29,9.07,9.07,0,0,1,8.15-.92c1.12.38,2.21.85,3.29,1.31a.71.71,0,0,0,.8-.09,9.34,9.34,0,0,1,1.58-1,2.68,2.68,0,0,1,2.31-.11,1.35,1.35,0,0,1,.76,1.82,1.89,1.89,0,0,1-.17.35,6.64,6.64,0,0,1-4.08,3,3.7,3.7,0,0,1-2.37-.48.57.57,0,0,0-.79.14A41.79,41.79,0,0,0,19.79,21.38Zm-4.45,3.43A16.27,16.27,0,0,0,9.51,27,5,5,0,0,0,7.25,29.6c-.08.23-.22.49,0,.73s.48.17.75.12a5.71,5.71,0,0,0,1.71-.72,20.7,20.7,0,0,0,3.52-2.61A20.23,20.23,0,0,0,15.34,24.81Zm11.13-10a2.82,2.82,0,0,0,1,.27,2.65,2.65,0,0,0,1.76-.33c.18-.11.41-.24.34-.5s-.32-.26-.54-.28A4.32,4.32,0,0,0,26.47,14.78Z"/><path d="M22.87,11.61a2.89,2.89,0,0,1-1.68-.45,1.92,1.92,0,0,1-.68-2.49A2.42,2.42,0,0,1,22.7,7a1.74,1.74,0,0,1,1.15.44,4.67,4.67,0,0,1,1.59,2.67.92.92,0,0,1-.76,1.27A9.83,9.83,0,0,1,22.87,11.61Z"/></g></g></svg>