<?xml version="1.0" ?><!DOCTYPE svg  PUBLIC '-//W3C//DTD SVG 1.1//EN'  'http://www.w3.org/Graphics/SVG/1.1/DTD/svg11.dtd'><svg id="Lager_1" style="enable-background:new -265 388.9 64 64;" version="1.1" viewBox="-265 388.9 64 64" xml:space="preserve" xmlns="http://www.w3.org/2000/svg" xmlns:xlink="http://www.w3.org/1999/xlink"><path d="M-226.9,420.9l12.3-12.3c1.2-1.2,1.5-2.9,0.7-3.7l-3-3c-0.8-0.8-2.5-0.5-3.7,0.7l-12.4,12.2l-12.3-12.3  c-1.2-1.2-2.9-1.5-3.7-0.7l-3,3c-0.8,0.8-0.5,2.5,0.7,3.7l12.2,12.4l-12.3,12.3c-1.2,1.2-1.5,2.9-0.7,3.7l3,3  c0.8,0.8,2.5,0.5,3.7-0.7L-233,427l12.3,12.3c1.2,1.2,2.9,1.5,3.7,0.7l3-3c0.8-0.8,0.5-2.5-0.7-3.7L-226.9,420.9z"/></svg>