<svg xmlns="http://www.w3.org/2000/svg" viewBox="0 0 293.36 104.92"><defs><style>.cls-1{fill:#fff;}</style></defs><title>資產 4</title><g id="圖層_2" data-name="圖層 2"><g id="圖層_1-2" data-name="圖層 1"><path class="cls-1" d="M143.33,5.41v18.9a33.74,33.74,0,0,0,.45,5.92h-.26L132.91,5.41H125V40h6V21.11a30.71,30.71,0,0,0-.59-6.15h.31L141.39,40h7.86V5.41Z"/><path class="cls-1" d="M169.62,5.27h-8.74L152.31,40h6.44l2-8.74h9l2,8.74h6.47ZM162,25.59q2-8.74,2.46-11.19c.32-1.63.58-3.13.78-4.49.08.67.32,2,.7,4s.64,3.19.75,3.68l1.85,8Z"/><path class="cls-1" d="M177.2,5.41v5.66h6.63V40h6.42v-29h6.63V5.41Z"/><path class="cls-1" d="M215.47,5.41V28.34a8.64,8.64,0,0,1-1.11,4.78,3.56,3.56,0,0,1-3.15,1.68q-4.38,0-4.38-6.6V5.41h-6.4V27.72q0,6.33,2.7,9.56T211,40.51c3.52,0,6.21-1.08,8.07-3.26s2.8-5.31,2.8-9.43V5.41Z"/><path class="cls-1" d="M242.28,24.86q4.43-2.61,4.43-9.17,0-5.21-2.55-7.74t-7.9-2.54h-8.43V40h6.45V26.56h2.29L242,40h6.89Zm-3.08-5.13A3.87,3.87,0,0,1,235.93,21h-1.65V11h1.61a4.26,4.26,0,0,1,3.25,1.12,5.47,5.47,0,0,1,1.06,3.78A6.26,6.26,0,0,1,239.2,19.73Z"/><path class="cls-1" d="M266.34,5.27H257.6L249,40h6.44l2-8.74h9l2,8.74h6.47Zm-7.6,20.32q2-8.74,2.46-11.19c.32-1.63.58-3.13.78-4.49.08.67.31,2,.7,4s.64,3.19.75,3.68l1.85,8Z"/><path class="cls-1" d="M284.44,34.4v-29H278V40h15.37V34.4Z"/><path class="cls-1" d="M143.67,68.08a11.1,11.1,0,0,0-9.41-4.46H125V98.24h8.48q6.55,0,10.06-4.54T147,80.6Q147,72.54,143.67,68.08Zm-4.93,21.57a5.58,5.58,0,0,1-5.21,3h-2.08V69.18H134q6.39,0,6.39,11.61C140.42,84.73,139.86,87.69,138.74,89.65Z"/><path class="cls-1" d="M167.68,69.18V63.62H152.07V98.24h15.61V92.6h-9.17V83H167V77.42h-8.51V69.18Z"/><path class="cls-1" d="M187.16,83.3a14.65,14.65,0,0,0-4.73-4.65,14.75,14.75,0,0,1-3.51-3,4.83,4.83,0,0,1-1-3,4.32,4.32,0,0,1,.84-2.81,3,3,0,0,1,2.41-1,7,7,0,0,1,2.66.52,21.13,21.13,0,0,1,2.38,1.19l2.13-5.17a14.59,14.59,0,0,0-7.65-2.22,8.74,8.74,0,0,0-6.64,2.6,9.84,9.84,0,0,0-2.48,7.06,12,12,0,0,0,.63,4.07A10.62,10.62,0,0,0,174,80,16.06,16.06,0,0,0,177.34,83,16.29,16.29,0,0,1,181,86.15a5,5,0,0,1,1.12,3.16,4,4,0,0,1-.94,2.77,3.58,3.58,0,0,1-2.78,1,13.3,13.3,0,0,1-7.13-2.53v6.37a15.57,15.57,0,0,0,7.7,1.77q4.61,0,7.07-2.58t2.45-7.43A10.76,10.76,0,0,0,187.16,83.3Z"/><path class="cls-1" d="M193.92,63.62V98.24H200V63.62Z"/><path class="cls-1" d="M217.77,79v5.69h4.29v7.93a13.07,13.07,0,0,1-3.18.4,4.87,4.87,0,0,1-4.51-3.1c-1-2.07-1.55-5-1.55-8.93s.71-6.75,2.14-8.94a6.65,6.65,0,0,1,5.82-3.28,11,11,0,0,1,5.49,1.71l2-5.26a15.84,15.84,0,0,0-7.91-2.13q-6.7,0-10.43,4.71t-3.73,13q0,8.64,3.25,13.24a10.71,10.71,0,0,0,9.3,4.59,24.13,24.13,0,0,0,9.57-1.92V79Z"/><path class="cls-1" d="M252,63.62V82.51a33.66,33.66,0,0,0,.45,5.92h-.26L241.55,63.62h-7.91V98.24h6V79.32a30,30,0,0,0-.59-6.16h.31L250,98.24h7.87V63.62Z"/><path class="cls-1" d="M61.53,27.59l-3.65,3.65a3.83,3.83,0,0,0,0,5.42L109.21,88a3.83,3.83,0,0,1,1.12,2.71v10.38a3.83,3.83,0,0,1-6.54,2.71L30.29,30.3a3.83,3.83,0,0,0-5.42,0L6.54,48.63A3.83,3.83,0,0,1,0,45.92V3.83A3.83,3.83,0,0,1,3.83,0H106.5a3.83,3.83,0,0,1,3.83,3.83V59.46a3.83,3.83,0,0,1-6.54,2.71L68.07,26.46a3.83,3.83,0,0,0-5.42,0Z"/><polygon class="cls-1" points="55.17 33.95 110.33 89.12 110.33 89.13 55.15 33.96 55.17 33.95"/><path class="cls-1" d="M27.68,101.82V80.34a3.1,3.1,0,0,0-3.1-3.1H3.1A3.1,3.1,0,0,0,.91,82.53L22.39,104A3.1,3.1,0,0,0,27.68,101.82Z"/><rect class="cls-1" x="0.34" y="55.84" width="4" height="5.38"/><rect class="cls-1" x="0.34" y="66.02" width="4" height="5.38"/><rect class="cls-1" x="43.34" y="100.92" width="5.38" height="4"/><rect class="cls-1" x="53.52" y="100.92" width="5.38" height="4"/><rect class="cls-1" x="63.7" y="100.92" width="5.38" height="4"/><rect class="cls-1" x="73.88" y="100.92" width="5.38" height="4"/><rect class="cls-1" x="84.05" y="100.92" width="5.38" height="4"/><rect class="cls-1" x="33.16" y="100.92" width="5.38" height="4"/></g></g></svg>