<svg width="829" height="126" viewBox="0 0 829 126" fill="none" xmlns="http://www.w3.org/2000/svg">
<path fill-rule="evenodd" clip-rule="evenodd" d="M73.0161 16.794C69.5862 18.4725 67.4116 21.9576 67.4116 25.7762V100.17C67.4116 103.989 69.5862 107.474 73.0161 109.152L105.228 124.916C111.872 128.167 119.624 123.33 119.624 115.934V10.0126C119.624 2.61607 111.872 -2.22074 105.228 1.03044L73.0161 16.794ZM44.9326 25.8202C44.9326 23.6111 46.7235 21.8202 48.9326 21.8202H57.3868C59.5959 21.8202 61.3868 23.6111 61.3868 25.8202V100.091C61.3868 102.3 59.5959 104.091 57.3868 104.091H48.9326C46.7235 104.091 44.9326 102.3 44.9326 100.091V25.8202ZM26.4541 32.1313C24.245 32.1313 22.4541 33.9221 22.4541 36.1313V89.7925C22.4541 92.0017 24.245 93.7925 26.4541 93.7925H34.4154C36.6245 93.7925 38.4154 92.0017 38.4154 89.7925V36.1313C38.4154 33.9221 36.6245 32.1313 34.4154 32.1313H26.4541ZM125.901 44.3984L125.899 56.89L125.9 80.2729L126.219 80.1255C127.578 79.4967 128.964 78.856 130.21 77.9795C133.202 75.8763 135.479 72.6529 136.834 69.0029C138.258 65.1686 138.252 60.8124 137.359 56.8285H137.359L136.331 53.9763C134.188 49.1362 130.365 46.0742 125.901 44.3984ZM0 52.31C0 50.1008 1.79086 48.31 4 48.31H11.9613C14.1704 48.31 15.9613 50.1008 15.9613 52.31V73.6143C15.9613 75.8235 14.1704 77.6143 11.9613 77.6143H4C1.79086 77.6143 0 75.8235 0 73.6143V52.31Z" fill="white"/>
<path d="M774.459 107.442H756.521V17.8169H774.459V53.6919H810.271V17.8169H828.209V107.442H810.271V71.6294H774.459V107.442Z" fill="white"/>
<path d="M743.524 98.2544C739.357 101.838 734.691 104.588 729.524 106.504C724.357 108.421 719.003 109.379 713.461 109.379C709.211 109.379 705.107 108.817 701.149 107.692C697.232 106.609 693.545 105.067 690.086 103.067C686.67 101.025 683.545 98.5877 680.711 95.7544C677.878 92.9211 675.441 89.7961 673.399 86.3794C671.399 82.9211 669.836 79.2336 668.711 75.3169C667.628 71.3586 667.086 67.2544 667.086 63.0044C667.086 58.7544 667.628 54.6502 668.711 50.6919C669.836 46.7336 671.399 43.0461 673.399 39.6294C675.441 36.1711 677.878 33.0252 680.711 30.1919C683.545 27.3586 686.67 24.9419 690.086 22.9419C693.545 20.9002 697.232 19.3377 701.149 18.2544C705.107 17.1294 709.211 16.5669 713.461 16.5669C719.003 16.5669 724.357 17.5252 729.524 19.4419C734.691 21.3169 739.357 24.0669 743.524 27.6919L734.024 43.3169C731.399 40.4836 728.295 38.3169 724.711 36.8169C721.128 35.2752 717.378 34.5044 713.461 34.5044C709.503 34.5044 705.795 35.2544 702.336 36.7544C698.878 38.2544 695.857 40.2961 693.274 42.8794C690.691 45.4211 688.649 48.4419 687.149 51.9419C685.649 55.4002 684.899 59.0877 684.899 63.0044C684.899 66.9211 685.649 70.6086 687.149 74.0669C688.649 77.4836 690.691 80.4836 693.274 83.0669C695.857 85.6502 698.878 87.6919 702.336 89.1919C705.795 90.6919 709.503 91.4419 713.461 91.4419C717.378 91.4419 721.128 90.6919 724.711 89.1919C728.295 87.6502 731.399 85.4627 734.024 82.6294L743.524 98.2544Z" fill="white"/>
<path d="M659.089 107.442H597.651V17.8169H659.089V35.7544H615.589V53.6919H645.026V71.6294H615.589V89.5044H659.089V107.442Z" fill="white"/>
<path d="M558.717 107.442H540.842V35.7544H513.904V17.8169H585.592V35.7544H558.717V107.442Z" fill="white"/>
<path d="M509.594 63.0044C509.594 67.2544 509.032 71.3586 507.907 75.3169C506.823 79.2336 505.282 82.9211 503.282 86.3794C501.282 89.7961 498.865 92.9211 496.032 95.7544C493.198 98.5877 490.073 101.025 486.657 103.067C483.24 105.067 479.553 106.609 475.594 107.692C471.636 108.817 467.532 109.379 463.282 109.379C459.032 109.379 454.928 108.817 450.969 107.692C447.053 106.609 443.365 105.067 439.907 103.067C436.49 101.025 433.365 98.5877 430.532 95.7544C427.698 92.9211 425.261 89.7961 423.219 86.3794C421.219 82.9211 419.657 79.2336 418.532 75.3169C417.448 71.3586 416.907 67.2544 416.907 63.0044C416.907 58.7544 417.448 54.6502 418.532 50.6919C419.657 46.7336 421.219 43.0461 423.219 39.6294C425.261 36.2127 427.698 33.0877 430.532 30.2544C433.365 27.4211 436.49 25.0044 439.907 23.0044C443.365 21.0044 447.053 19.4627 450.969 18.3794C454.928 17.2544 459.032 16.6919 463.282 16.6919C467.532 16.6919 471.636 17.2544 475.594 18.3794C479.553 19.4627 483.24 21.0044 486.657 23.0044C490.073 25.0044 493.198 27.4211 496.032 30.2544C498.865 33.0877 501.282 36.2127 503.282 39.6294C505.282 43.0461 506.823 46.7336 507.907 50.6919C509.032 54.6502 509.594 58.7544 509.594 63.0044ZM491.782 63.0044C491.782 59.0877 491.032 55.4002 489.532 51.9419C488.032 48.4419 485.99 45.4211 483.407 42.8794C480.865 40.2961 477.844 38.2544 474.344 36.7544C470.886 35.2544 467.198 34.5044 463.282 34.5044C459.323 34.5044 455.615 35.2544 452.157 36.7544C448.698 38.2544 445.678 40.2961 443.094 42.8794C440.511 45.4211 438.469 48.4419 436.969 51.9419C435.469 55.4002 434.719 59.0877 434.719 63.0044C434.719 66.9211 435.469 70.6086 436.969 74.0669C438.469 77.4836 440.511 80.4836 443.094 83.0669C445.678 85.6502 448.698 87.6919 452.157 89.1919C455.615 90.6919 459.323 91.4419 463.282 91.4419C467.198 91.4419 470.886 90.6919 474.344 89.1919C477.844 87.6919 480.865 85.6502 483.407 83.0669C485.99 80.4836 488.032 77.4836 489.532 74.0669C491.032 70.6086 491.782 66.9211 491.782 63.0044Z" fill="white"/>
<path d="M348.784 107.442H330.847V17.8169H348.784V53.6919H384.597V17.8169H402.534V107.442H384.597V71.6294H348.784V107.442Z" fill="white"/>
<path d="M317.849 98.2544C313.682 101.838 309.016 104.588 303.849 106.504C298.682 108.421 293.328 109.379 287.787 109.379C283.537 109.379 279.432 108.817 275.474 107.692C271.557 106.609 267.87 105.067 264.412 103.067C260.995 101.025 257.87 98.5877 255.037 95.7544C252.203 92.9211 249.766 89.7961 247.724 86.3794C245.724 82.9211 244.162 79.2336 243.037 75.3169C241.953 71.3586 241.412 67.2544 241.412 63.0044C241.412 58.7544 241.953 54.6502 243.037 50.6919C244.162 46.7336 245.724 43.0461 247.724 39.6294C249.766 36.1711 252.203 33.0252 255.037 30.1919C257.87 27.3586 260.995 24.9419 264.412 22.9419C267.87 20.9002 271.557 19.3377 275.474 18.2544C279.432 17.1294 283.537 16.5669 287.787 16.5669C293.328 16.5669 298.682 17.5252 303.849 19.4419C309.016 21.3169 313.682 24.0669 317.849 27.6919L308.349 43.3169C305.724 40.4836 302.62 38.3169 299.037 36.8169C295.453 35.2752 291.703 34.5044 287.787 34.5044C283.828 34.5044 280.12 35.2544 276.662 36.7544C273.203 38.2544 270.182 40.2961 267.599 42.8794C265.016 45.4211 262.974 48.4419 261.474 51.9419C259.974 55.4002 259.224 59.0877 259.224 63.0044C259.224 66.9211 259.974 70.6086 261.474 74.0669C262.974 77.4836 265.016 80.4836 267.599 83.0669C270.182 85.6502 273.203 87.6919 276.662 89.1919C280.12 90.6919 283.828 91.4419 287.787 91.4419C291.703 91.4419 295.453 90.6919 299.037 89.1919C302.62 87.6502 305.724 85.4627 308.349 82.6294L317.849 98.2544Z" fill="white"/>
<path d="M233.414 107.442H171.977V17.8169H233.414V35.7544H189.914V53.6919H219.352V71.6294H189.914V89.5044H233.414V107.442Z" fill="white"/>
</svg>
